<?xml version="1.0" encoding="utf-8"?>
<!-- Generator: Adobe Illustrator 21.1.0, SVG Export Plug-In . SVG Version: 6.00 Build 0)  -->
<svg version="1.1" id="레이어_1" xmlns="http://www.w3.org/2000/svg" xmlns:xlink="http://www.w3.org/1999/xlink" x="0px"
	 y="0px" viewBox="0 0 200 200" style="enable-background:new 0 0 200 200;" xml:space="preserve">
<style type="text/css">
	.st0{fill:#A3A3A3;}
</style>
<image style="overflow:visible;" width="540" height="47" xlink:href="2BBFC10C.jpg"  transform="matrix(1 0 0 1 -164.0027 -225.9705)">
</image>
<path class="st0" d="M190.5,78.9H180c-4,0-7.4-2.5-8.8-6.3c-0.4-1.3-1.1-2.5-1.5-3.6c-1.7-3.6-1.1-8,1.9-10.7l7.6-7.6
	c3.8-3.8,3.8-9.7,0-13.5l-16.4-16.4c-3.8-3.8-9.7-3.8-13.5,0l-7.6,7.6c-2.7,2.7-7.2,3.6-10.7,1.9c-1.3-0.4-2.3-1.1-3.6-1.5
	c-3.8-1.5-6.3-4.8-6.3-8.8V9.5c0-5.3-4.2-9.5-9.5-9.5H88.4c-5.3,0-9.5,4.2-9.5,9.5v10.7c0,4-2.5,7.6-6.3,8.8
	c-1.3,0.4-2.3,0.8-3.6,1.5c-3.6,1.7-7.8,0.8-10.7-1.9l-7.6-7.6c-3.8-3.8-9.7-3.8-13.5,0L20.8,37.5c-3.8,3.8-3.8,9.7,0,13.5l7.6,7.6
	c2.7,2.7,3.6,7.2,1.9,10.7c-0.6,1.3-1.1,2.3-1.5,3.6c-1.5,3.8-4.8,6.3-8.8,6.3H9.5c-5.3,0-9.5,4.2-9.5,9.5v23.2
	c0,5.1,4.2,9.3,9.5,9.3h10.3c4,0,7.6,2.5,8.8,6.3c0.4,1.3,1.1,2.5,1.5,3.8c1.7,3.6,0.8,7.8-1.9,10.7l-7.4,7.4
	c-3.8,3.8-3.8,9.7,0,13.5l16.4,16.4c3.8,3.8,9.7,3.8,13.5,0l7.2-7.2c2.7-2.7,6.9-3.6,10.5-1.9c1.5,0.6,2.9,1.3,4.2,1.9
	c3.6,1.5,6.1,4.8,6.1,8.8v9.7c0,5.3,4.2,9.5,9.5,9.5h23.2c5.3,0,9.5-4.2,9.5-9.5v-10.3c0-3.8,2.3-7.4,6.1-8.8
	c1.5-0.6,2.9-1.1,4.2-1.9c3.6-1.7,7.8-0.8,10.5,1.9l7.2,7.2c3.8,3.8,9.7,3.8,13.5,0l16.4-16.4c3.8-3.8,3.8-9.7,0-13.5l-7.2-6.9
	c-2.7-2.7-3.6-6.9-1.9-10.7c0.6-1.3,1.1-2.5,1.5-3.8c1.5-3.8,4.8-6.3,8.8-6.3h10.5c5.3,0,9.5-4.2,9.5-9.5V88.2
	C200,83.2,195.8,78.9,190.5,78.9z M100,136.8c-20.4,0-36.8-16.4-36.8-36.8S79.6,63.2,100,63.2s36.8,16.4,36.8,36.8
	S120.4,136.8,100,136.8z"/>
</svg>
